<?xml version="1.0" encoding="UTF-8"?>
<svg width="195px" height="16px" viewBox="0 0 195 16" version="1.1" xmlns="http://www.w3.org/2000/svg" xmlns:xlink="http://www.w3.org/1999/xlink">
    <!-- Generator: Sketch 60.1 (88133) - https://sketch.com -->
    <title>Logo White</title>
    <desc>Created with Sketch.</desc>
    <g id="Layouts" stroke="none" stroke-width="1" fill="none" fill-rule="evenodd">
        <g id="Header-Black-Three-1440" transform="translate(-151.000000, -44.000000)">
            <g id="Header">
                <rect id="bg" fill="#000000" x="0" y="0" width="1440" height="104"></rect>
                <path d="M342.420258,44.2285435 L338.117909,50.7644976 L333.8606,44.2285435 L330.165319,44.2285435 L336.557157,53.899646 L336.557157,59.7714565 L339.643412,59.7714565 L339.643412,53.899646 L346,44.2285435 L342.420258,44.2285435 Z M312.201984,46.9749725 L317.07811,46.9749725 L317.07811,59.7714565 L320.164365,59.7714565 L320.164365,46.9749725 L325.0307,46.9749725 L325.0307,44.2285435 L312.201984,44.2285435 L312.201984,46.9749725 Z M302.451691,59.7714565 L305.549695,59.7714565 L305.549695,44.2285435 L302.451691,44.2285435 L302.451691,59.7714565 Z M288.481296,52.5264314 L284.705725,52.5264314 L284.705725,46.9066048 L288.481296,46.9066048 C290.110588,46.9066048 291.338432,47.9262605 291.338432,49.7331217 C291.338432,51.3934806 290.134087,52.5264314 288.481296,52.5264314 L288.481296,52.5264314 Z M294.528475,49.7233549 C294.528475,46.2209742 291.980749,44.2285435 288.837703,44.2285435 L281.607721,44.2285435 L281.607721,59.7714565 L284.705725,59.7714565 L284.705725,55.1927726 L288.308967,55.1927726 L291.87696,59.7597363 L295.619239,59.7597363 L291.487261,54.6087169 C293.265383,53.7511903 294.528475,51.9775363 294.528475,49.7233549 L294.528475,49.7233549 Z M264.298452,54.2668783 L267.040049,47.4554999 L269.760105,54.2668783 L264.298452,54.2668783 Z M265.250178,44.2285435 L258.96213,59.7714565 L262.267712,59.7714565 L263.427016,56.7261629 L270.655041,56.7261629 L271.802595,59.7714565 L275.106219,59.7714565 L268.808379,44.2285435 L265.250178,44.2285435 Z M245.404933,44.2285435 L242.306928,44.2285435 L242.306928,59.7714565 L253.792261,59.7714565 L253.792261,57.1051154 L245.404933,57.1051154 L245.404933,44.2285435 Z M231.318999,54.0481016 C231.318999,56.1772677 229.826787,57.2301306 227.590428,57.2301306 C225.491148,57.2301306 223.883397,56.2690758 223.883397,54.0481016 L223.883397,44.2285435 L220.797142,44.2285435 L220.797142,54.2551581 C220.797142,58.1696984 223.734567,60 227.590428,60 C231.15842,60 234.405254,58.3064339 234.405254,54.2551581 L234.405254,44.2285435 L231.318999,44.2285435 L231.318999,54.0481016 Z M205.448116,57.1051154 L202.166032,57.1051154 L202.166032,46.8948846 L205.448116,46.8948846 C208.935819,46.8948846 210.475029,48.7388597 210.475029,51.9892565 C210.475029,55.2162129 208.971068,57.1051154 205.448116,57.1051154 L205.448116,57.1051154 Z M205.781024,44.2285435 L199.068028,44.2285435 L199.068028,59.7714565 L205.781024,59.7714565 C210.749189,59.7714565 213.653324,56.8062508 213.653324,51.9892565 C213.653324,47.2035161 210.807938,44.2285435 205.781024,44.2285435 L205.781024,44.2285435 Z M183.605421,57.1285557 C180.599456,57.1285557 178.545216,55.0677573 178.545216,52.0224637 C178.545216,49.0006104 180.599456,46.8831644 183.605421,46.8831644 C186.634886,46.8831644 188.665626,49.0006104 188.665626,52.0224637 C188.665626,55.0677573 186.634886,57.1285557 183.605421,57.1285557 L183.605421,57.1285557 Z M183.59563,44 C178.797835,44 175.355172,47.3304847 175.355172,52.0341839 C175.355172,56.7261629 178.797835,60 183.59563,60 C188.413007,60 191.84392,56.7261629 191.84392,52.0341839 C191.84392,47.3422049 188.413007,44 183.59563,44 L183.59563,44 Z M159.583157,51.1883775 L153.686765,44.2285435 L151,44.2285435 L151,59.7714565 L154.098005,59.7714565 L154.098005,49.1607862 L159.342288,55.0208766 L159.835775,55.0208766 L165.04481,49.1510194 L165.04481,59.7714565 L168.133023,59.7714565 L168.133023,44.2285435 L165.458007,44.2285435 L159.583157,51.1883775 Z" id="Logo-White" fill="#FFFFFF"></path>
            </g>
        </g>
    </g>
</svg>