<?xml version="1.0" encoding="UTF-8"?>
<svg width="49px" height="57px" viewBox="0 0 49 57" version="1.1" xmlns="http://www.w3.org/2000/svg" xmlns:xlink="http://www.w3.org/1999/xlink">
    <!-- Generator: Sketch 60.1 (88133) - https://sketch.com -->
    <title>Elements/Icons--64px/bulb</title>
    <desc>Created with Sketch.</desc>
    <g id="Layouts" stroke="none" stroke-width="1" fill="none" fill-rule="evenodd">
        <g id="Features-Black-Three-1440" transform="translate(-168.000000, -410.000000)">
            <rect fill="#000000" x="0" y="0" width="1440" height="1920"></rect>
            <g id="Feature-1">
                <rect id="bg" fill="#000000" x="0" y="0" width="1440" height="640"></rect>
                <g id="Highlight-1" transform="translate(160.000000, 408.000000)">
                    <g id="Elements/Icons--64px/speed">
                        <polygon id="Path" points="0 0 64 0 64 64 0 64"></polygon>
                        <path d="M40.1866667,2.69333333 L24.1866667,2.69333333 L24.1866667,8.02666667 L40.1866667,8.02666667 L40.1866667,2.69333333 Z M29.52,37.36 L34.8533333,37.36 L34.8533333,21.36 L29.52,21.36 L29.52,37.36 Z M50.9333333,19.7066667 L54.72,15.92 C53.5733333,14.56 52.32,13.28 50.96,12.16 L47.1733333,15.9466667 C43.04,12.64 37.84,10.6666667 32.1866667,10.6666667 C18.9333333,10.6666667 8.18666667,21.4133333 8.18666667,34.6666667 C8.18666667,47.92 18.9066667,58.6666667 32.1866667,58.6666667 C45.4666667,58.6666667 56.1866667,47.92 56.1866667,34.6666667 C56.1866667,29.04 54.2133333,23.84 50.9333333,19.7066667 Z M32.1866667,53.36 C21.8666667,53.36 13.52,45.0133333 13.52,34.6933333 C13.52,24.3733333 21.8666667,16.0266667 32.1866667,16.0266667 C42.5066667,16.0266667 50.8533333,24.3733333 50.8533333,34.6933333 C50.8533333,45.0133333 42.5066667,53.36 32.1866667,53.36 Z" id="Shape" fill="#FFFFFF" fill-rule="evenodd"></path>
                    </g>
                </g>
            </g>
        </g>
    </g>
</svg>